<svg width="273" height="56" viewBox="0 0 273 56" fill="none" xmlns="http://www.w3.org/2000/svg">
<rect width="13.19" height="32.9435" transform="matrix(0.866325 0.49948 3.18816e-05 1 28.5722 0)" fill="#6E6E6E"/>
<rect width="32.9796" height="32.9435" transform="matrix(0.866325 -0.49948 -3.18816e-05 1 0.00148773 16.4727)" fill="#5A5A5A"/>
<rect width="13.19" height="32.9796" transform="matrix(0.866357 0.499425 -0.866357 0.499425 28.5722 32.9417)" fill="#AAAAAA"/>
<rect width="13.19" height="32.9435" transform="matrix(0.866325 0.49948 3.18816e-05 1 0.000396729 16.4672)" fill="#78909C"/>
<rect width="32.9796" height="32.9435" transform="matrix(0.866325 -0.49948 -3.18816e-05 1 11.4283 23.0559)" fill="#607D8B"/>
<path d="M31.3704 26.6926L29.5816 27.2658L30.9728 28.7545L30.9726 35.8561L35.7427 28.5243L35.7429 20.7354L33.5567 22.9122L31.3704 26.6926Z" fill="white"/>
<path d="M20.2405 33.1096L22.0292 31.6202L20.6379 34.7131L20.6377 41.8147L15.8679 39.9832L15.8681 32.1943L18.0543 31.8502L20.2405 33.1096Z" fill="white"/>
<path fill-rule="evenodd" clip-rule="evenodd" d="M21.2342 34.8276L22.8243 31.1618L23.818 31.2761L27.793 28.9844L28.7867 27.7242L30.3766 29.5565L30.3763 39.8653L29.1837 42.6145L27.7925 45.0203L23.8175 47.312L22.4263 46.5106L21.2338 45.1363L21.2342 34.8276Z" fill="white"/>
<path d="M30.9725 40.2088L33.5563 35.7411L33.5564 32.763L30.9726 36.7725L30.9725 40.2088Z" fill="white"/>
<path d="M20.6375 46.1673L18.0539 44.6789L18.0539 41.7008L20.6376 42.7311L20.6375 46.1673Z" fill="white"/>
<path fill-rule="evenodd" clip-rule="evenodd" d="M23.2221 17.6457L21.632 22.915L24.2155 30.1306L25.408 29.443L25.4084 16.3852L26.2034 15.9269L26.203 28.9847L27.5942 28.1826L29.9795 18.1023L28.3896 14.6664L23.2221 17.6457Z" fill="white"/>
<path d="M24.2154 30.1306L15.6693 31.3926L14.477 26.353L21.8307 22.8005L24.4142 30.016L24.2154 30.1306Z" fill="white"/>
<path d="M27.5942 28.1827L36.1406 19.59L37.3332 13.1753L29.7807 18.217L27.3955 28.2972L27.5942 28.1827Z" fill="white"/>
<path d="M30.3771 17.1859L34.5508 14.3213L31.7684 12.7184L28.9859 14.3226L30.3771 17.1859Z" fill="white"/>
<path d="M21.2345 22.457L17.0608 24.4052L19.8434 19.5937L22.6259 17.9895L21.2345 22.457Z" fill="white"/>
<rect width="32.9796" height="13.19" transform="matrix(0.866357 -0.499425 0.866357 0.499425 0.000396729 16.4709)" fill="#90A4AE"/>
<path d="M58 43.36C58 43.76 58.24 44 58.64 44H62.8C63.24 44 63.44 43.76 63.44 43.36V33.28H68.24C72 33.28 74 31.24 74 27.52V17.76C74 14 72 12 68.24 12H58.64C58.24 12 58 12.24 58 12.64V43.36ZM63.44 28V17.28H66.96C68.04 17.28 68.56 17.84 68.56 18.88V26.4C68.56 27.4 68.04 28 66.96 28H63.44ZM94.0494 17.76C94.0494 14 92.0494 12 88.2894 12H78.2494C77.8494 12 77.6094 12.24 77.6094 12.64V43.36C77.6094 43.76 77.8494 44 78.2494 44H82.4094C82.8094 44 83.0494 43.76 83.0494 43.36V33.28H85.8094L88.4894 43.44C88.5694 43.8 88.7694 44 89.1694 44H93.3294C93.7694 44 94.0094 43.76 93.8894 43.28L91.1294 32.8C93.0494 31.96 94.0494 30.2 94.0494 27.52V17.76ZM83.0494 28V17.28H87.0094C88.0494 17.28 88.6094 17.84 88.6094 18.88V26.4C88.6094 27.44 88.0494 28 87.0094 28H83.0494ZM98.6791 12C98.2391 12 98.0391 12.24 98.0391 12.64V43.36C98.0391 43.76 98.2391 44 98.6791 44H102.839C103.239 44 103.479 43.76 103.479 43.36V12.64C103.479 12.24 103.239 12 102.839 12H98.6791ZM124.212 12C123.732 12 123.452 12.24 123.332 12.72L118.892 32.64L114.452 12.72C114.332 12.24 114.052 12 113.572 12H108.292C107.772 12 107.492 12.28 107.492 12.8V43.2C107.492 43.72 107.772 44 108.292 44H111.972C112.492 44 112.772 43.72 112.772 43.2V25.2H113.052L117.012 43.28C117.132 43.76 117.412 44 117.892 44H119.852C120.332 44 120.612 43.76 120.732 43.28L124.692 25.2H124.972V43.2C124.972 43.72 125.252 44 125.772 44H129.492C130.012 44 130.292 43.72 130.292 43.2V12.8C130.292 12.28 130.012 12 129.492 12H124.212ZM150.249 12.64C150.249 12.24 150.089 12 149.609 12H134.889C134.529 12 134.289 12.24 134.289 12.64V43.36C134.289 43.76 134.529 44 134.889 44H149.609C150.089 44 150.249 43.76 150.249 43.36V39.36C150.249 38.92 150.089 38.72 149.609 38.72H139.609V30.64H147.249C147.649 30.64 147.889 30.4 147.889 29.96V26C147.889 25.56 147.649 25.32 147.249 25.32H139.609V17.32H149.609C150.089 17.32 150.249 17.04 150.249 16.64V12.64Z" fill="#283738"/>
<path d="M170.29 17.76C170.29 14 168.25 12 164.49 12H154.89C154.49 12 154.25 12.2 154.25 12.64V43.36C154.25 43.76 154.49 44 154.89 44H164.49C168.25 44 170.29 42 170.29 38.24V30.88C170.29 29.4 169.21 28.28 167.77 28.04V27.96C169.21 27.72 170.29 26.6 170.29 25.12V17.76ZM164.97 23.8C164.97 24.8 164.41 25.36 163.37 25.36H159.73V17.28H163.37C164.45 17.28 164.97 17.84 164.97 18.88V23.8ZM164.97 37.12C164.97 38.2 164.41 38.72 163.37 38.72H159.73V30.64H163.37C164.45 30.64 164.97 31.2 164.97 32.24V37.12ZM179.729 38.72H189.249C189.689 38.72 189.889 38.96 189.889 39.36V43.36C189.889 43.8 189.689 44 189.249 44H174.929C174.529 44 174.289 43.8 174.289 43.36V12.64C174.289 12.24 174.529 12 174.929 12H179.089C179.529 12 179.729 12.24 179.729 12.64V38.72ZM192.688 38.24C192.688 42 194.688 44 198.448 44H202.928C206.688 44 208.688 42 208.688 38.24V17.76C208.688 14 206.688 12 202.928 12H198.448C194.688 12 192.688 14 192.688 17.76V38.24ZM199.608 38.84C198.568 38.84 198.008 38.32 198.008 37.24V18.76C198.008 17.72 198.568 17.16 199.608 17.16H201.928C202.968 17.16 203.528 17.72 203.528 18.76V37.24C203.528 38.32 202.968 38.84 201.928 38.84H199.608ZM228.728 17.76C228.728 14 226.688 12 222.968 12H218.488C214.728 12 212.688 14 212.688 17.76V38.24C212.688 42 214.728 44 218.488 44H222.968C226.688 44 228.728 42 228.728 38.24V33.92C228.728 33.52 228.488 33.28 228.088 33.28H224.088C223.648 33.28 223.448 33.52 223.448 33.92V37.12C223.448 38.2 222.888 38.72 221.848 38.72H219.768C218.728 38.72 218.168 38.2 218.168 37.12V18.88C218.168 17.84 218.688 17.28 219.768 17.28H221.848C222.888 17.28 223.448 17.84 223.448 18.88V22.08C223.448 22.48 223.648 22.72 224.088 22.72H228.088C228.488 22.72 228.728 22.48 228.728 22.08V17.76ZM249.847 44C250.487 44 250.727 43.6 250.447 43.08L243.207 26.92L250.007 12.96C250.287 12.4 250.047 12 249.447 12H245.247C244.807 12 244.527 12.2 244.327 12.6L238.167 25.2V12.8C238.167 12.28 237.887 12 237.367 12H233.527C233.007 12 232.727 12.28 232.727 12.8V43.2C232.727 43.72 233.007 44 233.527 44H237.367C237.887 44 238.167 43.72 238.167 43.2V34.36L239.647 31.52L244.687 43.4C244.847 43.8 245.127 44 245.607 44H249.847ZM259.932 12C256.212 12 254.172 14 254.172 17.76V27.2C254.172 27.96 254.532 28.44 255.252 28.68L264.732 31.8V37.12C264.732 38.2 264.172 38.72 263.132 38.72H261.212C260.212 38.72 259.612 38.2 259.612 37.12V34.04C259.612 33.6 259.412 33.4 258.972 33.4H254.812C254.412 33.4 254.172 33.6 254.172 34.04V38.24C254.172 42 256.212 44 259.932 44H264.412C268.172 44 270.172 42 270.172 38.24V29C270.172 28.24 269.812 27.8 269.132 27.52L259.612 24.4V18.88C259.612 17.84 260.212 17.28 261.212 17.28H263.132C264.212 17.28 264.732 17.84 264.732 18.88V22C264.732 22.4 264.972 22.64 265.372 22.64H269.532C269.972 22.64 270.172 22.4 270.172 22V17.76C270.172 14 268.172 12 264.412 12H259.932Z" fill="#78909C"/>
</svg>
