<svg width="283" height="132" viewBox="0 0 283 132" fill="none" xmlns="http://www.w3.org/2000/svg">
<rect width="283" height="132" rx="4" fill="#78909C" fill-opacity="0.1"/>
<rect x="1" y="1" width="281" height="130" rx="3" stroke="#78909C" stroke-opacity="0.5" stroke-width="2"/>
<g filter="url(#filter0_d)">
<rect x="2" y="46" width="279" height="40" fill="white"/>
</g>
<rect x="26" y="58" width="32" height="16" rx="2" fill="#EEF1F2"/>
<rect x="76" y="58" width="32" height="16" rx="2" fill="#EEF1F2"/>
<rect x="126" y="58" width="32" height="16" rx="2" fill="#EEF1F2"/>
<rect x="176" y="58" width="32" height="16" rx="2" fill="#EEF1F2"/>
<rect x="226" y="58" width="32" height="16" rx="2" fill="#EEF1F2"/>
<path d="M41.5372 61.1319C41.7066 60.7175 42.2934 60.7175 42.4628 61.1319L43.959 64.791C43.9761 64.8329 43.9988 64.8722 44.0265 64.908L46.4473 68.0333C46.7214 68.3872 46.4281 68.8953 45.9845 68.8349L42.0675 68.301C42.0227 68.2949 41.9773 68.2949 41.9325 68.301L38.0155 68.8349C37.5719 68.8953 37.2786 68.3872 37.5527 68.0333L39.9735 64.908C40.0012 64.8722 40.0239 64.8329 40.041 64.791L41.5372 61.1319Z" fill="#B5C2C8"/>
<path d="M91.5245 61.4635C91.6741 61.0029 92.3259 61.0029 92.4755 61.4635L93.2348 63.8004C93.3018 64.0064 93.4937 64.1459 93.7104 64.1459H96.1675C96.6519 64.1459 96.8532 64.7657 96.4614 65.0504L94.4735 66.4947C94.2983 66.622 94.2249 66.8477 94.2919 67.0537L95.0512 69.3906C95.2009 69.8512 94.6736 70.2343 94.2818 69.9496L92.2939 68.5053C92.1186 68.378 91.8814 68.378 91.7061 68.5053L89.7182 69.9496C89.3264 70.2343 88.7991 69.8512 88.9488 69.3906L89.7081 67.0537C89.7751 66.8477 89.7017 66.622 89.5265 66.4947L87.5386 65.0504C87.1468 64.7657 87.3481 64.1459 87.8325 64.1459H90.2896C90.5063 64.1459 90.6982 64.0064 90.7652 63.8004L91.5245 61.4635Z" fill="#B5C2C8"/>
<path d="M141.531 61.2673C141.692 60.8319 142.308 60.8319 142.469 61.2673L143.541 64.1638C143.591 64.3007 143.699 64.4086 143.836 64.4592L146.733 65.5311C147.168 65.6922 147.168 66.3078 146.733 66.4689L143.836 67.5408C143.699 67.5914 143.591 67.6993 143.541 67.8362L142.469 70.7327C142.308 71.1681 141.692 71.1681 141.531 70.7327L140.459 67.8362C140.409 67.6993 140.301 67.5914 140.164 67.5408L137.267 66.4689C136.832 66.3078 136.832 65.6922 137.267 65.5311L140.164 64.4592C140.301 64.4086 140.409 64.3007 140.459 64.1638L141.531 61.2673Z" fill="#B5C2C8"/>
<path d="M191.519 61.6847C191.657 61.201 192.343 61.201 192.481 61.6847L193.013 63.5498C193.087 63.8092 193.354 63.9632 193.615 63.8976L195.497 63.426C195.985 63.3037 196.327 63.8974 195.978 64.2588L194.628 65.6522C194.441 65.8461 194.441 66.1539 194.628 66.3478L195.978 67.7412C196.327 68.1026 195.985 68.6963 195.497 68.574L193.615 68.1024C193.354 68.0368 193.087 68.1908 193.013 68.4502L192.481 70.3153C192.343 70.799 191.657 70.799 191.519 70.3153L190.987 68.4502C190.913 68.1908 190.646 68.0368 190.385 68.1024L188.503 68.574C188.015 68.6963 187.673 68.1026 188.022 67.7412L189.372 66.3478C189.559 66.1539 189.559 65.8461 189.372 65.6522L188.022 64.2588C187.673 63.8974 188.015 63.3037 188.503 63.426L190.385 63.8976C190.646 63.9632 190.913 63.8092 190.987 63.5498L191.519 61.6847Z" fill="#B5C2C8"/>
<path d="M241.515 61.9184C241.642 61.4151 242.358 61.4151 242.485 61.9184L242.848 63.3553C242.924 63.6574 243.255 63.8169 243.539 63.6882L244.889 63.0762C245.362 62.8618 245.808 63.4209 245.493 63.8342L244.596 65.0139C244.408 65.262 244.49 65.6203 244.767 65.7619L246.087 66.4356C246.55 66.6716 246.39 67.3689 245.871 67.3808L244.39 67.4151C244.078 67.4223 243.849 67.7096 243.911 68.0149L244.208 69.467C244.311 69.9757 243.667 70.286 243.334 69.8877L242.384 68.7507C242.184 68.5116 241.816 68.5116 241.616 68.7507L240.666 69.8877C240.333 70.286 239.689 69.9757 239.792 69.467L240.089 68.0149C240.151 67.7096 239.922 67.4223 239.61 67.4151L238.129 67.3808C237.61 67.3689 237.45 66.6716 237.913 66.4356L239.233 65.7619C239.51 65.6203 239.592 65.262 239.404 65.0139L238.507 63.8342C238.192 63.4209 238.638 62.8618 239.111 63.0762L240.461 63.6882C240.745 63.8169 241.076 63.6574 241.152 63.3553L241.515 61.9184Z" fill="#B5C2C8"/>
<defs>
<filter id="filter0_d" x="0" y="46" width="283" height="44" filterUnits="userSpaceOnUse" color-interpolation-filters="sRGB">
<feFlood flood-opacity="0" result="BackgroundImageFix"/>
<feColorMatrix in="SourceAlpha" type="matrix" values="0 0 0 0 0 0 0 0 0 0 0 0 0 0 0 0 0 0 127 0"/>
<feOffset dy="2"/>
<feGaussianBlur stdDeviation="1"/>
<feColorMatrix type="matrix" values="0 0 0 0 0 0 0 0 0 0 0 0 0 0 0 0 0 0 0.03 0"/>
<feBlend mode="normal" in2="BackgroundImageFix" result="effect1_dropShadow"/>
<feBlend mode="normal" in="SourceGraphic" in2="effect1_dropShadow" result="shape"/>
</filter>
</defs>
</svg>
