<svg width="283" height="132" viewBox="0 0 283 132" fill="none" xmlns="http://www.w3.org/2000/svg">
<rect width="283" height="132" rx="4" fill="#78909C" fill-opacity="0.1"/>
<rect x="1" y="1" width="281" height="130" rx="3" stroke="#78909C" stroke-opacity="0.5" stroke-width="2"/>
<g filter="url(#filter0_d)">
<path d="M2 4C2 2.89543 2.89543 2 4 2H279C280.105 2 281 2.89543 281 4V26H2V4Z" fill="white"/>
</g>
<rect x="52" y="24" width="16" height="2" fill="#283738"/>
<rect x="52" y="11.5" width="16" height="3" rx="1.5" fill="#B5C2C8"/>
<rect x="84" y="11.5" width="16" height="3" rx="1.5" fill="#B5C2C8"/>
<rect x="116" y="11.5" width="16" height="3" rx="1.5" fill="#B5C2C8"/>
<rect x="148" y="11.5" width="16" height="3" rx="1.5" fill="#B5C2C8"/>
<path d="M23.5192 9.18474C23.6572 8.70103 24.3428 8.70103 24.4808 9.18474L25.0131 11.0498C25.0871 11.3092 25.3537 11.4632 25.6154 11.3976L27.4967 10.926C27.9847 10.8037 28.3274 11.3974 27.9775 11.7588L26.6285 13.1522C26.4408 13.3461 26.4408 13.6539 26.6285 13.8478L27.9775 15.2412C28.3274 15.6026 27.9846 16.1963 27.4967 16.074L25.6154 15.6024C25.3537 15.5368 25.0871 15.6908 25.0131 15.9502L24.4808 17.8153C24.3428 18.299 23.6572 18.299 23.5192 17.8153L22.9869 15.9502C22.9129 15.6908 22.6463 15.5368 22.3846 15.6024L20.5033 16.074C20.0153 16.1963 19.6726 15.6026 20.0225 15.2412L21.3715 13.8478C21.5592 13.6539 21.5592 13.3461 21.3715 13.1522L20.0225 11.7588C19.6726 11.3974 20.0153 10.8037 20.5033 10.926L22.3846 11.3976C22.6463 11.4632 22.9129 11.3092 22.9869 11.0498L23.5192 9.18474Z" fill="#B5C2C8"/>
<defs>
<filter id="filter0_d" x="0" y="2" width="283" height="28" filterUnits="userSpaceOnUse" color-interpolation-filters="sRGB">
<feFlood flood-opacity="0" result="BackgroundImageFix"/>
<feColorMatrix in="SourceAlpha" type="matrix" values="0 0 0 0 0 0 0 0 0 0 0 0 0 0 0 0 0 0 127 0"/>
<feOffset dy="2"/>
<feGaussianBlur stdDeviation="1"/>
<feColorMatrix type="matrix" values="0 0 0 0 0 0 0 0 0 0 0 0 0 0 0 0 0 0 0.03 0"/>
<feBlend mode="normal" in2="BackgroundImageFix" result="effect1_dropShadow"/>
<feBlend mode="normal" in="SourceGraphic" in2="effect1_dropShadow" result="shape"/>
</filter>
</defs>
</svg>
