<svg width="283" height="132" viewBox="0 0 283 132" fill="none" xmlns="http://www.w3.org/2000/svg">
<rect width="283" height="132" rx="4" fill="#78909C" fill-opacity="0.1"/>
<rect x="1" y="1" width="281" height="130" rx="3" stroke="#78909C" stroke-opacity="0.5" stroke-width="2"/>
<g filter="url(#filter0_d)">
<rect x="70" y="36" width="144" height="60" rx="3" fill="white"/>
</g>
<rect x="176" y="78" width="32" height="10" rx="5" fill="#283738"/>
<rect x="184" y="82" width="16" height="2" rx="1" fill="#B5C2C8"/>
<rect x="176" y="78" width="32" height="10" rx="5" fill="#283738"/>
<rect x="184" y="82" width="16" height="2" rx="1" fill="#B5C2C8"/>
<rect x="138" y="78" width="32" height="10" rx="5" fill="#283738"/>
<rect x="146" y="82" width="16" height="2" rx="1" fill="#B5C2C8"/>
<rect x="138" y="78" width="32" height="10" rx="5" fill="#B5C2C8"/>
<rect x="146" y="82" width="16" height="2" rx="1" fill="#283738"/>
<path d="M202 53.75C201.172 53.75 200.395 53.5938 199.668 53.2812C198.934 52.9688 198.293 52.543 197.746 52.0039C197.207 51.457 196.781 50.8164 196.469 50.082C196.156 49.3555 196 48.5781 196 47.75C196 46.9219 196.156 46.1445 196.469 45.418C196.781 44.6836 197.207 44.0469 197.746 43.5078C198.293 42.9609 198.934 42.5312 199.668 42.2188C200.395 41.9062 201.172 41.75 202 41.75C202.828 41.75 203.605 41.9062 204.332 42.2188C205.066 42.5312 205.703 42.9609 206.242 43.5078C206.789 44.0469 207.219 44.6836 207.531 45.418C207.844 46.1445 208 46.9219 208 47.75C208 48.5781 207.844 49.3555 207.531 50.082C207.219 50.8164 206.789 51.457 206.242 52.0039C205.703 52.543 205.066 52.9688 204.332 53.2812C203.605 53.5938 202.828 53.75 202 53.75ZM202 42.7461C201.312 42.7461 200.664 42.8789 200.055 43.1445C199.445 43.4023 198.914 43.7578 198.461 44.2109C198.008 44.6641 197.652 45.1953 197.395 45.8047C197.129 46.4141 196.996 47.0625 196.996 47.75C196.996 48.4375 197.129 49.0859 197.395 49.6953C197.652 50.3047 198.008 50.8359 198.461 51.2891C198.914 51.7422 199.445 52.0977 200.055 52.3555C200.664 52.6211 201.312 52.7539 202 52.7539C202.688 52.7539 203.336 52.6211 203.945 52.3555C204.555 52.0977 205.086 51.7422 205.539 51.2891C205.992 50.8359 206.348 50.3047 206.605 49.6953C206.871 49.0859 207.004 48.4375 207.004 47.75C207.004 47.0625 206.871 46.4141 206.605 45.8047C206.348 45.1953 205.992 44.6641 205.539 44.2109C205.086 43.7578 204.555 43.4023 203.945 43.1445C203.336 42.8789 202.688 42.7461 202 42.7461ZM199.996 50.2461C199.926 50.2461 199.859 50.2344 199.797 50.2109C199.742 50.1875 199.691 50.1523 199.645 50.1055C199.598 50.0586 199.562 50.0039 199.539 49.9414C199.516 49.8789 199.504 49.8164 199.504 49.7539C199.504 49.6836 199.516 49.6172 199.539 49.5547C199.562 49.4922 199.598 49.4414 199.645 49.4023L203.652 45.3945C203.691 45.3555 203.738 45.3242 203.793 45.3008C203.855 45.2773 203.922 45.2656 203.992 45.2656C204.125 45.2656 204.238 45.3164 204.332 45.418C204.434 45.5117 204.484 45.625 204.484 45.7578C204.484 45.8281 204.473 45.8945 204.449 45.957C204.426 46.0117 204.395 46.0625 204.355 46.1094V46.0977L200.348 50.1055C200.309 50.1523 200.258 50.1875 200.195 50.2109C200.133 50.2344 200.07 50.2461 200.008 50.2461C200 50.2461 199.996 50.2461 199.996 50.2461ZM204.004 50.2461C204.004 50.2461 204 50.2461 203.992 50.2461C203.93 50.2461 203.867 50.2344 203.805 50.2109C203.742 50.1875 203.691 50.1523 203.652 50.1055L199.645 46.0977C199.605 46.0586 199.574 46.0117 199.551 45.957C199.527 45.8945 199.516 45.8281 199.516 45.7578C199.516 45.625 199.562 45.5117 199.656 45.418C199.758 45.3164 199.875 45.2656 200.008 45.2656C200.078 45.2656 200.141 45.2773 200.195 45.3008C200.258 45.3242 200.312 45.3555 200.359 45.3945H200.348L204.355 49.4023C204.402 49.4414 204.438 49.4922 204.461 49.5547C204.484 49.6172 204.496 49.6836 204.496 49.7539C204.496 49.8164 204.484 49.8789 204.461 49.9414C204.438 50.0039 204.402 50.0586 204.355 50.1055C204.309 50.1523 204.254 50.1875 204.191 50.2109C204.137 50.2344 204.074 50.2461 204.004 50.2461Z" fill="#B5C2C8"/>
<rect x="82" y="44" width="36" height="3" rx="1.5" fill="#283738"/>
<rect x="82" y="55" width="77" height="3" rx="1.5" fill="#B5C2C8"/>
<rect x="82" y="64" width="62" height="3" rx="1.5" fill="#B5C2C8"/>
<defs>
<filter id="filter0_d" x="68" y="36" width="148" height="64" filterUnits="userSpaceOnUse" color-interpolation-filters="sRGB">
<feFlood flood-opacity="0" result="BackgroundImageFix"/>
<feColorMatrix in="SourceAlpha" type="matrix" values="0 0 0 0 0 0 0 0 0 0 0 0 0 0 0 0 0 0 127 0"/>
<feOffset dy="2"/>
<feGaussianBlur stdDeviation="1"/>
<feColorMatrix type="matrix" values="0 0 0 0 0 0 0 0 0 0 0 0 0 0 0 0 0 0 0.03 0"/>
<feBlend mode="normal" in2="BackgroundImageFix" result="effect1_dropShadow"/>
<feBlend mode="normal" in="SourceGraphic" in2="effect1_dropShadow" result="shape"/>
</filter>
</defs>
</svg>
