<svg width="283" height="135" viewBox="0 0 283 135" fill="none" xmlns="http://www.w3.org/2000/svg">
<rect width="283" height="132" rx="4" fill="#78909C" fill-opacity="0.1"/>
<rect x="1" y="1" width="281" height="130" rx="3" stroke="#78909C" stroke-opacity="0.5" stroke-width="2"/>
<g filter="url(#filter0_d)">
<path d="M16 50C16 48.3431 17.3431 47 19 47H264C265.657 47 267 48.3431 267 50V130H16V50Z" fill="white"/>
</g>
<g filter="url(#filter1_d)">
<path d="M2 4C2 2.89543 2.89543 2 4 2H279C280.105 2 281 2.89543 281 4V34H2V4Z" fill="white"/>
</g>
<rect x="229" y="13" width="38" height="10" rx="5" fill="#B5C2C8"/>
<rect x="237" y="17" width="22" height="2" rx="1" fill="#283738"/>
<rect x="16" y="11" width="120" height="3" rx="1.5" fill="#283738"/>
<rect x="16" y="21" width="87" height="3" rx="1.5" fill="#B5C2C8"/>
<defs>
<filter id="filter0_d" x="13" y="46" width="257" height="89" filterUnits="userSpaceOnUse" color-interpolation-filters="sRGB">
<feFlood flood-opacity="0" result="BackgroundImageFix"/>
<feColorMatrix in="SourceAlpha" type="matrix" values="0 0 0 0 0 0 0 0 0 0 0 0 0 0 0 0 0 0 127 0"/>
<feOffset dy="2"/>
<feGaussianBlur stdDeviation="1.5"/>
<feColorMatrix type="matrix" values="0 0 0 0 0 0 0 0 0 0 0 0 0 0 0 0 0 0 0.06 0"/>
<feBlend mode="normal" in2="BackgroundImageFix" result="effect1_dropShadow"/>
<feBlend mode="normal" in="SourceGraphic" in2="effect1_dropShadow" result="shape"/>
</filter>
<filter id="filter1_d" x="0" y="2" width="283" height="36" filterUnits="userSpaceOnUse" color-interpolation-filters="sRGB">
<feFlood flood-opacity="0" result="BackgroundImageFix"/>
<feColorMatrix in="SourceAlpha" type="matrix" values="0 0 0 0 0 0 0 0 0 0 0 0 0 0 0 0 0 0 127 0"/>
<feOffset dy="2"/>
<feGaussianBlur stdDeviation="1"/>
<feColorMatrix type="matrix" values="0 0 0 0 0 0 0 0 0 0 0 0 0 0 0 0 0 0 0.03 0"/>
<feBlend mode="normal" in2="BackgroundImageFix" result="effect1_dropShadow"/>
<feBlend mode="normal" in="SourceGraphic" in2="effect1_dropShadow" result="shape"/>
</filter>
</defs>
</svg>
