<svg width="283" height="132" viewBox="0 0 283 132" fill="none" xmlns="http://www.w3.org/2000/svg">
<rect width="283" height="132" rx="4" fill="#78909C" fill-opacity="0.1"/>
<rect x="1" y="1" width="281" height="130" rx="3" stroke="#78909C" stroke-opacity="0.5" stroke-width="2"/>
<g filter="url(#filter0_d)">
<rect x="28" y="41" width="72" height="51" rx="3" fill="white"/>
</g>
<rect x="36" y="49" width="24" height="3" rx="1.5" fill="#B5C2C8"/>
<rect x="36" y="78" width="6" height="6" rx="3" fill="#F57C00"/>
<path d="M41.922 66.638C42.188 66.498 42.3 66.386 42.3 66.12V62.816C42.3 61.5 41.586 60.8 40.284 60.8H38.716C37.4 60.8 36.7 61.5 36.7 62.816V64.3C36.7 64.44 36.77 64.524 36.924 64.524H38.38C38.52 64.524 38.604 64.44 38.604 64.3V63.208C38.604 62.844 38.786 62.648 39.164 62.648H39.836C40.186 62.648 40.396 62.844 40.396 63.208V65.28L37.064 67.072C36.798 67.212 36.7 67.324 36.7 67.59V71.72C36.7 71.902 36.798 72 36.98 72H42.02C42.202 72 42.3 71.902 42.3 71.72V69.578C42.3 69.396 42.202 69.298 42.02 69.298H40.676C40.494 69.298 40.396 69.396 40.396 69.578V70.1521H38.884C38.702 70.1521 38.604 70.054 38.604 69.872V68.654C38.604 68.5 38.66 68.402 38.8 68.318L41.922 66.638Z" fill="#B5C2C8"/>
<path d="M46.402 65.126L48.096 61.122C48.18 60.926 48.096 60.8 47.886 60.8H46.43C46.262 60.8 46.164 60.87 46.108 61.01L44.12 65.742C44.022 65.994 43.98 66.176 43.98 66.442V70.04C43.98 71.314 44.666 72 45.94 72H47.62C48.894 72 49.58 71.314 49.58 70.04V67.086C49.58 65.812 48.894 65.126 47.62 65.126H46.402ZM46.388 70.1521C46.024 70.1521 45.828 69.956 45.828 69.592V67.534C45.828 67.17 46.024 66.974 46.388 66.974H47.172C47.536 66.974 47.732 67.17 47.732 67.534V69.592C47.732 69.956 47.536 70.1521 47.172 70.1521H46.388Z" fill="#B5C2C8"/>
<path d="M53.906 61.668C52.66 61.668 51.68 62.676 51.68 63.908C51.68 65.112 52.66 66.092 53.906 66.092C55.11 66.092 56.09 65.112 56.09 63.908C56.09 62.676 55.11 61.668 53.906 61.668ZM59.366 61.724C59.198 61.724 59.142 61.794 59.044 61.948L52.59 71.678C52.464 71.874 52.604 72 52.814 72H54.13C54.298 72 54.354 71.93 54.452 71.776L60.892 62.046C61.018 61.85 60.878 61.724 60.668 61.724H59.366ZM53.906 63.124C54.298 63.124 54.662 63.474 54.662 63.908C54.662 64.314 54.298 64.664 53.906 64.664C53.472 64.664 53.122 64.314 53.122 63.908C53.122 63.474 53.472 63.124 53.906 63.124ZM59.422 67.786C58.176 67.786 57.196 68.794 57.196 70.026C57.196 71.23 58.176 72.21 59.422 72.21C60.626 72.21 61.606 71.23 61.606 70.026C61.606 68.794 60.626 67.786 59.422 67.786ZM59.422 69.242C59.814 69.242 60.178 69.592 60.178 70.026C60.178 70.432 59.814 70.782 59.422 70.782C58.988 70.782 58.638 70.432 58.638 70.026C58.638 69.592 58.988 69.242 59.422 69.242Z" fill="#B5C2C8"/>
<g filter="url(#filter1_d)">
<rect x="106" y="41" width="72" height="51" rx="3" fill="white"/>
</g>
<rect x="114" y="49" width="15" height="3" rx="1.5" fill="#B5C2C8"/>
<rect x="114" y="78" width="6" height="6" rx="3" fill="#E91E63"/>
<path d="M117.122 65.126L118.816 61.122C118.9 60.926 118.816 60.8 118.606 60.8H117.15C116.982 60.8 116.884 60.87 116.828 61.01L114.84 65.742C114.742 65.994 114.7 66.176 114.7 66.442V70.04C114.7 71.314 115.386 72 116.66 72H118.34C119.614 72 120.3 71.314 120.3 70.04V67.086C120.3 65.812 119.614 65.126 118.34 65.126H117.122ZM117.108 70.1521C116.744 70.1521 116.548 69.956 116.548 69.592V67.534C116.548 67.17 116.744 66.974 117.108 66.974H117.892C118.256 66.974 118.452 67.17 118.452 67.534V69.592C118.452 69.956 118.256 70.1521 117.892 70.1521H117.108Z" fill="#B5C2C8"/>
<path d="M124.626 61.668C123.38 61.668 122.4 62.676 122.4 63.908C122.4 65.112 123.38 66.092 124.626 66.092C125.83 66.092 126.81 65.112 126.81 63.908C126.81 62.676 125.83 61.668 124.626 61.668ZM130.086 61.724C129.918 61.724 129.862 61.794 129.764 61.948L123.31 71.678C123.184 71.874 123.324 72 123.534 72H124.85C125.018 72 125.074 71.93 125.172 71.776L131.612 62.046C131.738 61.85 131.598 61.724 131.388 61.724H130.086ZM124.626 63.124C125.018 63.124 125.382 63.474 125.382 63.908C125.382 64.314 125.018 64.664 124.626 64.664C124.192 64.664 123.842 64.314 123.842 63.908C123.842 63.474 124.192 63.124 124.626 63.124ZM130.142 67.786C128.896 67.786 127.916 68.794 127.916 70.026C127.916 71.23 128.896 72.21 130.142 72.21C131.346 72.21 132.326 71.23 132.326 70.026C132.326 68.794 131.346 67.786 130.142 67.786ZM130.142 69.242C130.534 69.242 130.898 69.592 130.898 70.026C130.898 70.432 130.534 70.782 130.142 70.782C129.708 70.782 129.358 70.432 129.358 70.026C129.358 69.592 129.708 69.242 130.142 69.242Z" fill="#B5C2C8"/>
<g filter="url(#filter2_d)">
<rect x="184" y="41" width="72" height="51" rx="3" fill="white"/>
</g>
<rect x="192" y="49" width="33" height="3" rx="1.5" fill="#B5C2C8"/>
<rect x="192" y="78" width="6" height="6" rx="3" fill="#4CAF50"/>
<path d="M195.122 65.126L196.816 61.122C196.9 60.926 196.816 60.8 196.606 60.8H195.15C194.982 60.8 194.884 60.87 194.828 61.01L192.84 65.742C192.742 65.994 192.7 66.176 192.7 66.442V70.04C192.7 71.314 193.386 72 194.66 72H196.34C197.614 72 198.3 71.314 198.3 70.04V67.086C198.3 65.812 197.614 65.126 196.34 65.126H195.122ZM195.108 70.1521C194.744 70.1521 194.548 69.956 194.548 69.592V67.534C194.548 67.17 194.744 66.974 195.108 66.974H195.892C196.256 66.974 196.452 67.17 196.452 67.534V69.592C196.452 69.956 196.256 70.1521 195.892 70.1521H195.108Z" fill="#B5C2C8"/>
<path d="M205.202 66.638C205.468 66.498 205.58 66.386 205.58 66.12V62.816C205.58 61.5 204.866 60.8 203.564 60.8H201.996C200.68 60.8 199.98 61.5 199.98 62.816V64.3C199.98 64.44 200.05 64.524 200.204 64.524H201.66C201.8 64.524 201.884 64.44 201.884 64.3V63.208C201.884 62.844 202.066 62.648 202.444 62.648H203.116C203.466 62.648 203.676 62.844 203.676 63.208V65.28L200.344 67.072C200.078 67.212 199.98 67.324 199.98 67.59V71.72C199.98 71.902 200.078 72 200.26 72H205.3C205.482 72 205.58 71.902 205.58 71.72V69.578C205.58 69.396 205.482 69.298 205.3 69.298H203.956C203.774 69.298 203.676 69.396 203.676 69.578V70.1521H202.164C201.982 70.1521 201.884 70.054 201.884 69.872V68.654C201.884 68.5 201.94 68.402 202.08 68.318L205.202 66.638Z" fill="#B5C2C8"/>
<path d="M209.906 61.668C208.66 61.668 207.68 62.676 207.68 63.908C207.68 65.112 208.66 66.092 209.906 66.092C211.11 66.092 212.09 65.112 212.09 63.908C212.09 62.676 211.11 61.668 209.906 61.668ZM215.366 61.724C215.198 61.724 215.142 61.794 215.044 61.948L208.59 71.678C208.464 71.874 208.604 72 208.814 72H210.13C210.298 72 210.354 71.93 210.452 71.776L216.892 62.046C217.018 61.85 216.878 61.724 216.668 61.724H215.366ZM209.906 63.124C210.298 63.124 210.662 63.474 210.662 63.908C210.662 64.314 210.298 64.664 209.906 64.664C209.472 64.664 209.122 64.314 209.122 63.908C209.122 63.474 209.472 63.124 209.906 63.124ZM215.422 67.786C214.176 67.786 213.196 68.794 213.196 70.026C213.196 71.23 214.176 72.21 215.422 72.21C216.626 72.21 217.606 71.23 217.606 70.026C217.606 68.794 216.626 67.786 215.422 67.786ZM215.422 69.242C215.814 69.242 216.178 69.592 216.178 70.026C216.178 70.432 215.814 70.782 215.422 70.782C214.988 70.782 214.638 70.432 214.638 70.026C214.638 69.592 214.988 69.242 215.422 69.242Z" fill="#B5C2C8"/>
<defs>
<filter id="filter0_d" x="26" y="41" width="76" height="55" filterUnits="userSpaceOnUse" color-interpolation-filters="sRGB">
<feFlood flood-opacity="0" result="BackgroundImageFix"/>
<feColorMatrix in="SourceAlpha" type="matrix" values="0 0 0 0 0 0 0 0 0 0 0 0 0 0 0 0 0 0 127 0"/>
<feOffset dy="2"/>
<feGaussianBlur stdDeviation="1"/>
<feColorMatrix type="matrix" values="0 0 0 0 0 0 0 0 0 0 0 0 0 0 0 0 0 0 0.03 0"/>
<feBlend mode="normal" in2="BackgroundImageFix" result="effect1_dropShadow"/>
<feBlend mode="normal" in="SourceGraphic" in2="effect1_dropShadow" result="shape"/>
</filter>
<filter id="filter1_d" x="104" y="41" width="76" height="55" filterUnits="userSpaceOnUse" color-interpolation-filters="sRGB">
<feFlood flood-opacity="0" result="BackgroundImageFix"/>
<feColorMatrix in="SourceAlpha" type="matrix" values="0 0 0 0 0 0 0 0 0 0 0 0 0 0 0 0 0 0 127 0"/>
<feOffset dy="2"/>
<feGaussianBlur stdDeviation="1"/>
<feColorMatrix type="matrix" values="0 0 0 0 0 0 0 0 0 0 0 0 0 0 0 0 0 0 0.03 0"/>
<feBlend mode="normal" in2="BackgroundImageFix" result="effect1_dropShadow"/>
<feBlend mode="normal" in="SourceGraphic" in2="effect1_dropShadow" result="shape"/>
</filter>
<filter id="filter2_d" x="182" y="41" width="76" height="55" filterUnits="userSpaceOnUse" color-interpolation-filters="sRGB">
<feFlood flood-opacity="0" result="BackgroundImageFix"/>
<feColorMatrix in="SourceAlpha" type="matrix" values="0 0 0 0 0 0 0 0 0 0 0 0 0 0 0 0 0 0 127 0"/>
<feOffset dy="2"/>
<feGaussianBlur stdDeviation="1"/>
<feColorMatrix type="matrix" values="0 0 0 0 0 0 0 0 0 0 0 0 0 0 0 0 0 0 0.03 0"/>
<feBlend mode="normal" in2="BackgroundImageFix" result="effect1_dropShadow"/>
<feBlend mode="normal" in="SourceGraphic" in2="effect1_dropShadow" result="shape"/>
</filter>
</defs>
</svg>
