<svg width="283" height="134" viewBox="0 0 283 134" fill="none" xmlns="http://www.w3.org/2000/svg">
<rect width="283" height="132" rx="4" fill="#78909C" fill-opacity="0.1"/>
<rect x="1" y="1" width="281" height="130" rx="3" stroke="#78909C" stroke-opacity="0.5" stroke-width="2"/>
<g filter="url(#filter0_d)">
<path d="M209 2H279C280.105 2 281 2.89543 281 4V128C281 129.105 280.105 130 279 130H209V2Z" fill="white"/>
</g>
<path d="M268.732 16.625L271.779 13.5781C271.831 13.526 271.87 13.4674 271.896 13.4023C271.929 13.3372 271.945 13.2689 271.945 13.1973C271.945 13.054 271.893 12.9336 271.789 12.8359C271.691 12.7318 271.571 12.6797 271.428 12.6797C271.356 12.6797 271.288 12.696 271.223 12.7285C271.158 12.7546 271.099 12.7936 271.047 12.8457L268 15.8926L264.953 12.8457C264.901 12.8001 264.846 12.7643 264.787 12.7383C264.729 12.7122 264.663 12.6992 264.592 12.6992C264.449 12.6992 264.325 12.7513 264.221 12.8555C264.123 12.9531 264.074 13.0736 264.074 13.2168C264.074 13.2884 264.087 13.3535 264.113 13.4121C264.139 13.4707 264.175 13.526 264.221 13.5781L267.268 16.625L264.221 19.6719C264.169 19.724 264.13 19.7826 264.104 19.8477C264.077 19.9062 264.064 19.9714 264.064 20.043C264.064 20.1146 264.077 20.1829 264.104 20.248C264.13 20.3066 264.169 20.3587 264.221 20.4043C264.266 20.4564 264.318 20.4954 264.377 20.5215C264.442 20.5475 264.51 20.5605 264.582 20.5605C264.654 20.5605 264.719 20.5475 264.777 20.5215C264.842 20.4954 264.901 20.4564 264.953 20.4043L268 17.3574L271.047 20.4043C271.099 20.4564 271.154 20.4954 271.213 20.5215C271.278 20.5475 271.346 20.5605 271.418 20.5605C271.49 20.5605 271.555 20.5475 271.613 20.5215C271.678 20.4954 271.734 20.4564 271.779 20.4043C271.831 20.3587 271.87 20.3066 271.896 20.248C271.923 20.1829 271.936 20.1146 271.936 20.043C271.936 19.9714 271.923 19.9062 271.896 19.8477C271.87 19.7826 271.831 19.724 271.779 19.6719L268.732 16.625Z" fill="#B5C2C8"/>
<rect x="216" y="14" width="36" height="3" rx="1.5" fill="#B5C2C8"/>
<defs>
<filter id="filter0_d" x="205" y="2" width="76" height="132" filterUnits="userSpaceOnUse" color-interpolation-filters="sRGB">
<feFlood flood-opacity="0" result="BackgroundImageFix"/>
<feColorMatrix in="SourceAlpha" type="matrix" values="0 0 0 0 0 0 0 0 0 0 0 0 0 0 0 0 0 0 127 0"/>
<feOffset dx="-2" dy="2"/>
<feGaussianBlur stdDeviation="1"/>
<feColorMatrix type="matrix" values="0 0 0 0 0 0 0 0 0 0 0 0 0 0 0 0 0 0 0.06 0"/>
<feBlend mode="normal" in2="BackgroundImageFix" result="effect1_dropShadow"/>
<feBlend mode="normal" in="SourceGraphic" in2="effect1_dropShadow" result="shape"/>
</filter>
</defs>
</svg>
