<svg width="285" height="132" viewBox="0 0 285 132" fill="none" xmlns="http://www.w3.org/2000/svg">
<rect width="283" height="132" rx="4" fill="#78909C" fill-opacity="0.1"/>
<rect x="1" y="1" width="281" height="130" rx="3" stroke="#78909C" stroke-opacity="0.5" stroke-width="2"/>
<g filter="url(#filter0_d)">
<rect x="2" y="54" width="279" height="25" fill="white"/>
</g>
<rect x="78" y="65" width="32" height="3" rx="1.5" fill="#B5C2C8"/>
<rect x="148" y="65" width="32" height="3" rx="1.5" fill="#283738"/>
<path d="M39.4121 66.6699C39.3392 66.6699 39.2708 66.6608 39.207 66.6426C39.1523 66.6243 39.0977 66.5924 39.043 66.5469V66.5605L33 62.0215L26.957 66.5605C26.9023 66.597 26.8431 66.6243 26.7793 66.6426C26.7246 66.6608 26.6608 66.6699 26.5879 66.6699C26.4238 66.6699 26.2826 66.6152 26.1641 66.5059C26.0456 66.3874 25.9863 66.2415 25.9863 66.0684C25.9863 65.9772 26.0091 65.8906 26.0547 65.8086C26.1003 65.7174 26.1595 65.6445 26.2324 65.5898L32.6445 60.791C32.6901 60.7546 32.7448 60.7272 32.8086 60.709C32.8724 60.6816 32.9362 60.668 33 60.668C33.0638 60.668 33.1276 60.6816 33.1914 60.709C33.2552 60.7272 33.3099 60.7546 33.3555 60.791L39.7676 65.5898C39.8405 65.6445 39.8952 65.7129 39.9316 65.7949C39.9681 65.877 39.9863 65.9635 39.9863 66.0547C39.9863 66.1185 39.9772 66.1823 39.959 66.2461C39.9408 66.3008 39.918 66.3509 39.8906 66.3965C39.8359 66.4785 39.7676 66.5469 39.6855 66.6016C39.6035 66.6471 39.5124 66.6699 39.4121 66.6699ZM37.8125 73.082H28.1875C28.0234 73.082 27.8822 73.0228 27.7637 72.9043C27.6543 72.7858 27.5996 72.6445 27.5996 72.4805V64.8789C27.5996 64.7057 27.6543 64.5645 27.7637 64.4551C27.8822 64.3366 28.0234 64.2773 28.1875 64.2773C28.3607 64.2773 28.502 64.3366 28.6113 64.4551C28.7298 64.5645 28.7891 64.7057 28.7891 64.8789V71.8789H37.2109V64.8789C37.2109 64.7057 37.2656 64.5645 37.375 64.4551C37.4935 64.3366 37.6393 64.2773 37.8125 64.2773C37.9766 64.2773 38.1133 64.3366 38.2227 64.4551C38.3411 64.5645 38.4004 64.7057 38.4004 64.8789V72.4805C38.4004 72.6445 38.3411 72.7858 38.2227 72.9043C38.1133 73.0228 37.9766 73.082 37.8125 73.082ZM34.5996 73.082C34.4355 73.082 34.2943 73.0228 34.1758 72.9043C34.0573 72.7858 33.998 72.6445 33.998 72.4805V67.4766H32.002V72.4805C32.002 72.6445 31.9427 72.7858 31.8242 72.9043C31.7057 73.0228 31.5645 73.082 31.4004 73.082C31.2363 73.082 31.0951 73.0228 30.9766 72.9043C30.8581 72.7858 30.7988 72.6445 30.7988 72.4805V66.875C30.7988 66.7109 30.8581 66.5697 30.9766 66.4512C31.0951 66.3327 31.2363 66.2734 31.4004 66.2734H34.5996C34.7637 66.2734 34.9049 66.3327 35.0234 66.4512C35.1419 66.5697 35.2012 66.7109 35.2012 66.875V72.4805C35.2012 72.6445 35.1419 72.7858 35.0234 72.9043C34.9049 73.0228 34.7637 73.082 34.5996 73.082Z" fill="#B5C2C8"/>
<path d="M57.168 71.332C57.0586 71.3229 56.9538 71.2956 56.8535 71.25C56.7624 71.2044 56.6803 71.1452 56.6074 71.0723C56.5345 70.9993 56.4753 70.9173 56.4297 70.8262C56.3932 70.7259 56.375 70.6211 56.375 70.5117C56.375 70.4023 56.3932 70.3021 56.4297 70.2109C56.4753 70.1107 56.5345 70.0241 56.6074 69.9512L59.752 66.8066L56.6074 63.6621C56.5892 63.6165 56.5755 63.571 56.5664 63.5254C56.5573 63.4707 56.5527 63.416 56.5527 63.3613C56.5527 63.1517 56.6302 62.9694 56.7852 62.8145C56.9401 62.6595 57.1224 62.582 57.332 62.582C57.4049 62.582 57.4733 62.5911 57.5371 62.6094C57.6009 62.6276 57.6647 62.6504 57.7285 62.6777H57.7148L61.3926 66.3555C61.4655 66.4193 61.5202 66.5013 61.5566 66.6016C61.6022 66.6927 61.625 66.793 61.625 66.9023C61.625 67.0117 61.6022 67.1165 61.5566 67.2168C61.5202 67.3079 61.4655 67.39 61.3926 67.4629L57.7148 71.0723C57.651 71.1452 57.569 71.2044 57.4688 71.25C57.3776 71.2956 57.2773 71.3229 57.168 71.332Z" fill="#B5C2C8"/>
<path d="M127.168 71.332C127.059 71.3229 126.954 71.2956 126.854 71.25C126.762 71.2044 126.68 71.1452 126.607 71.0723C126.535 70.9993 126.475 70.9173 126.43 70.8262C126.393 70.7259 126.375 70.6211 126.375 70.5117C126.375 70.4023 126.393 70.3021 126.43 70.2109C126.475 70.1107 126.535 70.0241 126.607 69.9512L129.752 66.8066L126.607 63.6621C126.589 63.6165 126.576 63.571 126.566 63.5254C126.557 63.4707 126.553 63.416 126.553 63.3613C126.553 63.1517 126.63 62.9694 126.785 62.8145C126.94 62.6595 127.122 62.582 127.332 62.582C127.405 62.582 127.473 62.5911 127.537 62.6094C127.601 62.6276 127.665 62.6504 127.729 62.6777H127.715L131.393 66.3555C131.465 66.4193 131.52 66.5013 131.557 66.6016C131.602 66.6927 131.625 66.793 131.625 66.9023C131.625 67.0117 131.602 67.1165 131.557 67.2168C131.52 67.3079 131.465 67.39 131.393 67.4629L127.715 71.0723C127.651 71.1452 127.569 71.2044 127.469 71.25C127.378 71.2956 127.277 71.3229 127.168 71.332Z" fill="#B5C2C8"/>
<defs>
<filter id="filter0_d" x="2" y="54" width="283" height="29" filterUnits="userSpaceOnUse" color-interpolation-filters="sRGB">
<feFlood flood-opacity="0" result="BackgroundImageFix"/>
<feColorMatrix in="SourceAlpha" type="matrix" values="0 0 0 0 0 0 0 0 0 0 0 0 0 0 0 0 0 0 127 0"/>
<feOffset dx="2" dy="2"/>
<feGaussianBlur stdDeviation="1"/>
<feColorMatrix type="matrix" values="0 0 0 0 0 0 0 0 0 0 0 0 0 0 0 0 0 0 0.03 0"/>
<feBlend mode="normal" in2="BackgroundImageFix" result="effect1_dropShadow"/>
<feBlend mode="normal" in="SourceGraphic" in2="effect1_dropShadow" result="shape"/>
</filter>
</defs>
</svg>
