<svg width="283" height="132" viewBox="0 0 283 132" fill="none" xmlns="http://www.w3.org/2000/svg">
<rect width="283" height="132" rx="4" fill="#78909C" fill-opacity="0.1"/>
<rect x="1" y="1" width="281" height="130" rx="3" stroke="#78909C" stroke-opacity="0.5" stroke-width="2"/>
<g filter="url(#filter0_d)">
<rect x="28" y="24" width="72" height="36" rx="3" fill="white"/>
</g>
<rect x="36" y="49" width="24" height="3" rx="1.5" fill="#B5C2C8"/>
<rect x="84.5" y="30.5" width="9" height="9" rx="4.5" fill="#B5C2C8" stroke="white"/>
<rect x="36" y="32" width="18" height="3" rx="1.5" fill="#283738"/>
<g filter="url(#filter1_d)">
<rect x="28" y="72" width="72" height="36" rx="3" fill="white"/>
</g>
<rect x="36" y="97" width="24" height="3" rx="1.5" fill="#B5C2C8"/>
<rect x="84.5" y="78.5" width="9" height="9" rx="4.5" fill="#B5C2C8" stroke="white"/>
<rect x="36" y="80" width="33" height="3" rx="1.5" fill="#283738"/>
<g filter="url(#filter2_d)">
<rect x="106" y="24" width="72" height="36" rx="3" fill="white"/>
</g>
<rect x="114" y="49" width="18" height="3" rx="1.5" fill="#B5C2C8"/>
<rect x="162.5" y="30.5" width="9" height="9" rx="4.5" fill="#B5C2C8" stroke="white"/>
<rect x="114" y="32" width="26" height="3" rx="1.5" fill="#283738"/>
<g filter="url(#filter3_d)">
<rect x="106" y="72" width="72" height="36" rx="3" fill="white"/>
</g>
<rect x="114" y="97" width="24" height="3" rx="1.5" fill="#B5C2C8"/>
<rect x="162.5" y="78.5" width="9" height="9" rx="4.5" fill="#B5C2C8" stroke="white"/>
<rect x="114" y="80" width="18" height="3" rx="1.5" fill="#283738"/>
<g filter="url(#filter4_d)">
<rect x="184" y="24" width="72" height="36" rx="3" fill="white"/>
</g>
<rect x="192" y="49" width="18" height="3" rx="1.5" fill="#B5C2C8"/>
<rect x="240.5" y="30.5" width="9" height="9" rx="4.5" fill="#B5C2C8" stroke="white"/>
<rect x="192" y="32" width="29" height="3" rx="1.5" fill="#283738"/>
<g filter="url(#filter5_d)">
<rect x="184" y="72" width="72" height="36" rx="3" fill="white"/>
</g>
<rect x="192" y="97" width="20" height="3" rx="1.5" fill="#B5C2C8"/>
<rect x="240.5" y="78.5" width="9" height="9" rx="4.5" fill="#B5C2C8" stroke="white"/>
<rect x="192" y="80" width="24" height="3" rx="1.5" fill="#283738"/>
<defs>
<filter id="filter0_d" x="26" y="24" width="76" height="40" filterUnits="userSpaceOnUse" color-interpolation-filters="sRGB">
<feFlood flood-opacity="0" result="BackgroundImageFix"/>
<feColorMatrix in="SourceAlpha" type="matrix" values="0 0 0 0 0 0 0 0 0 0 0 0 0 0 0 0 0 0 127 0"/>
<feOffset dy="2"/>
<feGaussianBlur stdDeviation="1"/>
<feColorMatrix type="matrix" values="0 0 0 0 0 0 0 0 0 0 0 0 0 0 0 0 0 0 0.03 0"/>
<feBlend mode="normal" in2="BackgroundImageFix" result="effect1_dropShadow"/>
<feBlend mode="normal" in="SourceGraphic" in2="effect1_dropShadow" result="shape"/>
</filter>
<filter id="filter1_d" x="26" y="72" width="76" height="40" filterUnits="userSpaceOnUse" color-interpolation-filters="sRGB">
<feFlood flood-opacity="0" result="BackgroundImageFix"/>
<feColorMatrix in="SourceAlpha" type="matrix" values="0 0 0 0 0 0 0 0 0 0 0 0 0 0 0 0 0 0 127 0"/>
<feOffset dy="2"/>
<feGaussianBlur stdDeviation="1"/>
<feColorMatrix type="matrix" values="0 0 0 0 0 0 0 0 0 0 0 0 0 0 0 0 0 0 0.03 0"/>
<feBlend mode="normal" in2="BackgroundImageFix" result="effect1_dropShadow"/>
<feBlend mode="normal" in="SourceGraphic" in2="effect1_dropShadow" result="shape"/>
</filter>
<filter id="filter2_d" x="104" y="24" width="76" height="40" filterUnits="userSpaceOnUse" color-interpolation-filters="sRGB">
<feFlood flood-opacity="0" result="BackgroundImageFix"/>
<feColorMatrix in="SourceAlpha" type="matrix" values="0 0 0 0 0 0 0 0 0 0 0 0 0 0 0 0 0 0 127 0"/>
<feOffset dy="2"/>
<feGaussianBlur stdDeviation="1"/>
<feColorMatrix type="matrix" values="0 0 0 0 0 0 0 0 0 0 0 0 0 0 0 0 0 0 0.03 0"/>
<feBlend mode="normal" in2="BackgroundImageFix" result="effect1_dropShadow"/>
<feBlend mode="normal" in="SourceGraphic" in2="effect1_dropShadow" result="shape"/>
</filter>
<filter id="filter3_d" x="104" y="72" width="76" height="40" filterUnits="userSpaceOnUse" color-interpolation-filters="sRGB">
<feFlood flood-opacity="0" result="BackgroundImageFix"/>
<feColorMatrix in="SourceAlpha" type="matrix" values="0 0 0 0 0 0 0 0 0 0 0 0 0 0 0 0 0 0 127 0"/>
<feOffset dy="2"/>
<feGaussianBlur stdDeviation="1"/>
<feColorMatrix type="matrix" values="0 0 0 0 0 0 0 0 0 0 0 0 0 0 0 0 0 0 0.03 0"/>
<feBlend mode="normal" in2="BackgroundImageFix" result="effect1_dropShadow"/>
<feBlend mode="normal" in="SourceGraphic" in2="effect1_dropShadow" result="shape"/>
</filter>
<filter id="filter4_d" x="182" y="24" width="76" height="40" filterUnits="userSpaceOnUse" color-interpolation-filters="sRGB">
<feFlood flood-opacity="0" result="BackgroundImageFix"/>
<feColorMatrix in="SourceAlpha" type="matrix" values="0 0 0 0 0 0 0 0 0 0 0 0 0 0 0 0 0 0 127 0"/>
<feOffset dy="2"/>
<feGaussianBlur stdDeviation="1"/>
<feColorMatrix type="matrix" values="0 0 0 0 0 0 0 0 0 0 0 0 0 0 0 0 0 0 0.03 0"/>
<feBlend mode="normal" in2="BackgroundImageFix" result="effect1_dropShadow"/>
<feBlend mode="normal" in="SourceGraphic" in2="effect1_dropShadow" result="shape"/>
</filter>
<filter id="filter5_d" x="182" y="72" width="76" height="40" filterUnits="userSpaceOnUse" color-interpolation-filters="sRGB">
<feFlood flood-opacity="0" result="BackgroundImageFix"/>
<feColorMatrix in="SourceAlpha" type="matrix" values="0 0 0 0 0 0 0 0 0 0 0 0 0 0 0 0 0 0 127 0"/>
<feOffset dy="2"/>
<feGaussianBlur stdDeviation="1"/>
<feColorMatrix type="matrix" values="0 0 0 0 0 0 0 0 0 0 0 0 0 0 0 0 0 0 0.03 0"/>
<feBlend mode="normal" in2="BackgroundImageFix" result="effect1_dropShadow"/>
<feBlend mode="normal" in="SourceGraphic" in2="effect1_dropShadow" result="shape"/>
</filter>
</defs>
</svg>
