<svg width="283" height="132" viewBox="0 0 283 132" fill="none" xmlns="http://www.w3.org/2000/svg">
<rect width="283" height="132" rx="4" fill="#78909C" fill-opacity="0.1"/>
<rect x="1" y="1" width="281" height="130" rx="3" stroke="#78909C" stroke-opacity="0.5" stroke-width="2"/>
<g filter="url(#filter0_d)">
<rect x="67" y="54" width="149" height="24" rx="3" fill="white"/>
</g>
<rect opacity="0.5" x="91" y="54" width="1" height="24" fill="#B5C2C8"/>
<rect opacity="0.5" x="116" y="54" width="1" height="24" fill="#B5C2C8"/>
<rect opacity="0.5" x="141" y="54" width="1" height="24" fill="#B5C2C8"/>
<rect opacity="0.5" x="166" y="54" width="1" height="24" fill="#B5C2C8"/>
<rect opacity="0.5" x="191" y="54" width="1" height="24" fill="#B5C2C8"/>
<path d="M101.966 61.15C101.784 61.164 101.7 61.262 101.7 61.444V62.788C101.7 62.97 101.812 63.068 101.994 63.04L102.862 62.928V71.776C102.862 71.916 102.932 72 103.086 72H104.542C104.682 72 104.766 71.916 104.766 71.776V61.024C104.766 60.884 104.682 60.8 104.542 60.8L101.966 61.15Z" fill="#B5C2C8"/>
<path d="M130.922 66.638C131.188 66.498 131.3 66.386 131.3 66.12V62.816C131.3 61.5 130.586 60.8 129.284 60.8H127.716C126.4 60.8 125.7 61.5 125.7 62.816V64.3C125.7 64.44 125.77 64.524 125.924 64.524H127.38C127.52 64.524 127.604 64.44 127.604 64.3V63.208C127.604 62.844 127.786 62.648 128.164 62.648H128.836C129.186 62.648 129.396 62.844 129.396 63.208V65.28L126.064 67.072C125.798 67.212 125.7 67.324 125.7 67.59V71.72C125.7 71.902 125.798 72 125.98 72H131.02C131.202 72 131.3 71.902 131.3 71.72V69.578C131.3 69.396 131.202 69.298 131.02 69.298H129.676C129.494 69.298 129.396 69.396 129.396 69.578V70.152H127.884C127.702 70.152 127.604 70.054 127.604 69.872V68.654C127.604 68.5 127.66 68.402 127.8 68.318L130.922 66.638Z" fill="#B5C2C8"/>
<path d="M156.314 62.816C156.314 61.5 155.6 60.8 154.284 60.8H152.66C151.386 60.8 150.7 61.444 150.7 62.648V63.222C150.7 63.404 150.798 63.502 150.98 63.502H152.324C152.506 63.502 152.604 63.404 152.604 63.222V62.648H154.172C154.354 62.648 154.452 62.746 154.452 62.928V64.93C154.452 65.28 154.256 65.476 153.892 65.476H152.24C152.058 65.476 151.96 65.574 151.96 65.756V67.044C151.96 67.226 152.058 67.324 152.24 67.324H153.892C154.27 67.324 154.452 67.52 154.452 67.884V69.872C154.452 70.054 154.354 70.152 154.172 70.152H152.604V69.578C152.604 69.396 152.506 69.298 152.324 69.298H150.98C150.798 69.298 150.7 69.396 150.7 69.578V70.04C150.7 71.314 151.386 72 152.66 72H154.284C155.6 72 156.314 71.3 156.314 69.984V67.408C156.314 66.89 155.936 66.498 155.432 66.414V66.386C155.936 66.302 156.314 65.91 156.314 65.392V62.816Z" fill="#283738"/>
<path d="M180.776 66.932V65.28C180.776 65.098 180.678 65 180.496 65H179.278C179.096 65 178.998 65.098 178.998 65.28V66.96H176.87L180.384 61.136C180.51 60.94 180.426 60.8 180.202 60.8H178.732C178.578 60.8 178.466 60.856 178.396 60.982L174.798 66.806C174.728 66.918 174.7 67.016 174.7 67.142V68.388C174.7 68.57 174.798 68.668 174.98 68.668H178.998V71.72C178.998 71.902 179.096 72 179.278 72H180.496C180.678 72 180.776 71.902 180.776 71.72V68.696H181.35C181.532 68.696 181.63 68.598 181.63 68.416V67.212C181.63 67.03 181.532 66.932 181.35 66.932H180.776Z" fill="#B5C2C8"/>
<path d="M202.168 71.332C202.059 71.3229 201.954 71.2956 201.854 71.25C201.762 71.2044 201.68 71.1452 201.607 71.0723C201.535 70.9993 201.475 70.9173 201.43 70.8262C201.393 70.7259 201.375 70.6211 201.375 70.5117C201.375 70.4023 201.393 70.3021 201.43 70.2109C201.475 70.1107 201.535 70.0241 201.607 69.9512L204.752 66.8066L201.607 63.6621C201.589 63.6165 201.576 63.571 201.566 63.5254C201.557 63.4707 201.553 63.416 201.553 63.3613C201.553 63.1517 201.63 62.9694 201.785 62.8145C201.94 62.6595 202.122 62.582 202.332 62.582C202.405 62.582 202.473 62.5911 202.537 62.6094C202.601 62.6276 202.665 62.6504 202.729 62.6777H202.715L206.393 66.3555C206.465 66.4193 206.52 66.5013 206.557 66.6016C206.602 66.6927 206.625 66.793 206.625 66.9023C206.625 67.0117 206.602 67.1165 206.557 67.2168C206.52 67.3079 206.465 67.39 206.393 67.4629L202.715 71.0723C202.651 71.1452 202.569 71.2044 202.469 71.25C202.378 71.2956 202.277 71.3229 202.168 71.332Z" fill="#B5C2C8"/>
<path d="M80.832 71.3184C80.7227 71.3184 80.6178 71.3001 80.5176 71.2637C80.4264 71.2181 80.3444 71.1589 80.2715 71.0859L76.6211 67.4355C76.5482 67.3626 76.4889 67.2806 76.4434 67.1895C76.4069 67.0892 76.3887 66.9844 76.3887 66.875C76.3887 66.7656 76.4069 66.6654 76.4434 66.5742C76.4889 66.474 76.5482 66.3874 76.6211 66.3145L80.2715 62.6914C80.3353 62.6549 80.4036 62.6276 80.4766 62.6094C80.5495 62.582 80.6224 62.5684 80.6953 62.5684C80.9141 62.5684 81.1009 62.6458 81.2559 62.8008C81.4108 62.9557 81.4883 63.138 81.4883 63.3477C81.4883 63.4206 81.4792 63.4935 81.4609 63.5664C81.4427 63.6302 81.4154 63.6895 81.3789 63.7441L78.248 66.875L81.3789 70.0059C81.4518 70.0788 81.5065 70.1654 81.543 70.2656C81.5885 70.3568 81.6113 70.457 81.6113 70.5664C81.6113 70.6758 81.5885 70.7806 81.543 70.8809C81.5065 70.972 81.4518 71.0495 81.3789 71.1133C81.3151 71.1771 81.2376 71.2272 81.1465 71.2637C81.0553 71.3001 80.9596 71.3184 80.8594 71.3184C80.8594 71.3184 80.8548 71.3184 80.8457 71.3184C80.8366 71.3184 80.832 71.3184 80.832 71.3184Z" fill="#B5C2C8"/>
<defs>
<filter id="filter0_d" x="65" y="54" width="153" height="28" filterUnits="userSpaceOnUse" color-interpolation-filters="sRGB">
<feFlood flood-opacity="0" result="BackgroundImageFix"/>
<feColorMatrix in="SourceAlpha" type="matrix" values="0 0 0 0 0 0 0 0 0 0 0 0 0 0 0 0 0 0 127 0"/>
<feOffset dy="2"/>
<feGaussianBlur stdDeviation="1"/>
<feColorMatrix type="matrix" values="0 0 0 0 0 0 0 0 0 0 0 0 0 0 0 0 0 0 0.03 0"/>
<feBlend mode="normal" in2="BackgroundImageFix" result="effect1_dropShadow"/>
<feBlend mode="normal" in="SourceGraphic" in2="effect1_dropShadow" result="shape"/>
</filter>
</defs>
</svg>
