<svg width="283" height="132" viewBox="0 0 283 132" fill="none" xmlns="http://www.w3.org/2000/svg">
<rect width="283" height="132" rx="4" fill="#78909C" fill-opacity="0.02"/>
<rect x="1" y="1" width="281" height="130" rx="3" stroke="#78909C" stroke-opacity="0.5" stroke-width="2"/>
<rect x="57" y="17" width="35" height="3" rx="1.5" fill="#B5C2C8"/>
<rect x="57.75" y="28.75" width="70.5" height="8.5" rx="3.25" fill="#B5C2C8" fill-opacity="0.2" stroke="#B5C2C8" stroke-width="1.5"/>
<rect x="57" y="55" width="24" height="3" rx="1.5" fill="#B5C2C8"/>
<rect x="57.75" y="66.75" width="70.5" height="8.5" rx="3.25" fill="#B5C2C8" fill-opacity="0.2" stroke="#B5C2C8" stroke-width="1.5"/>
<rect x="57" y="93" width="48" height="3" rx="1.5" fill="#B5C2C8"/>
<rect x="57.75" y="104.75" width="70.5" height="8.5" rx="3.25" fill="#B5C2C8" fill-opacity="0.2" stroke="#B5C2C8" stroke-width="1.5"/>
<rect x="153" y="17" width="27" height="3" rx="1.5" fill="#B5C2C8"/>
<rect x="153.75" y="28.75" width="70.5" height="8.5" rx="3.25" fill="#B5C2C8" fill-opacity="0.2" stroke="#B5C2C8" stroke-width="1.5"/>
<rect x="153" y="55" width="35" height="3" rx="1.5" fill="#B5C2C8"/>
<rect x="153.75" y="66.75" width="70.5" height="8.5" rx="3.25" fill="#B5C2C8" fill-opacity="0.2" stroke="#B5C2C8" stroke-width="1.5"/>
<rect x="153" y="93" width="32" height="3" rx="1.5" fill="#B5C2C8"/>
<rect x="153.75" y="104.75" width="70.5" height="8.5" rx="3.25" fill="#B5C2C8" fill-opacity="0.2" stroke="#B5C2C8" stroke-width="1.5"/>
</svg>
