<svg width="283" height="132" viewBox="0 0 283 132" fill="none" xmlns="http://www.w3.org/2000/svg">
<rect width="283" height="132" rx="4" fill="#78909C" fill-opacity="0.1"/>
<rect x="1" y="1" width="281" height="130" rx="3" stroke="#78909C" stroke-opacity="0.5" stroke-width="2"/>
<g filter="url(#filter0_d)">
<rect x="106" y="48" width="72" height="46" rx="3" fill="white"/>
</g>
<rect x="112" y="54" width="4" height="4" rx="2" fill="#4CAF50"/>
<rect x="122" y="55" width="50" height="3" rx="1.5" fill="#B5C2C8"/>
<rect x="112" y="64" width="4" height="4" rx="2" fill="#B5C2C8"/>
<rect x="122" y="65" width="24" height="3" rx="1.5" fill="#B5C2C8"/>
<rect x="112" y="74" width="4" height="4" rx="2" fill="#4CAF50"/>
<rect x="122" y="75" width="33.75" height="3" rx="1.5" fill="#B5C2C8"/>
<rect x="112" y="84" width="4" height="4" rx="2" fill="#4CAF50"/>
<rect x="122" y="85" width="27.75" height="3" rx="1.5" fill="#B5C2C8"/>
<rect x="106.75" y="34.75" width="70.5" height="8.5" rx="3.25" fill="#B5C2C8" fill-opacity="0.2" stroke="#B5C2C8" stroke-width="1.5"/>
<rect x="169" y="38" width="5" height="2" rx="1" fill="#B5C2C8"/>
<defs>
<filter id="filter0_d" x="104" y="48" width="76" height="50" filterUnits="userSpaceOnUse" color-interpolation-filters="sRGB">
<feFlood flood-opacity="0" result="BackgroundImageFix"/>
<feColorMatrix in="SourceAlpha" type="matrix" values="0 0 0 0 0 0 0 0 0 0 0 0 0 0 0 0 0 0 127 0"/>
<feOffset dy="2"/>
<feGaussianBlur stdDeviation="1"/>
<feColorMatrix type="matrix" values="0 0 0 0 0 0 0 0 0 0 0 0 0 0 0 0 0 0 0.03 0"/>
<feBlend mode="normal" in2="BackgroundImageFix" result="effect1_dropShadow"/>
<feBlend mode="normal" in="SourceGraphic" in2="effect1_dropShadow" result="shape"/>
</filter>
</defs>
</svg>
