<svg width="283" height="132" viewBox="0 0 283 132" fill="none" xmlns="http://www.w3.org/2000/svg">
<rect width="283" height="132" rx="4" fill="#78909C" fill-opacity="0.1"/>
<rect x="1" y="1" width="281" height="130" rx="3" stroke="#78909C" stroke-opacity="0.5" stroke-width="2"/>
<rect x="115" y="50" width="43" height="3" rx="1.5" fill="#283738"/>
<rect x="115" y="61" width="93" height="3" rx="1.5" fill="#B5C2C8"/>
<rect x="115" y="70" width="74" height="3" rx="1.5" fill="#B5C2C8"/>
<rect x="115" y="79" width="51" height="3" rx="1.5" fill="#B5C2C8"/>
<circle cx="89" cy="64" r="14" fill="#E86F00"/>
<g filter="url(#filter0_d)">
<path d="M89 64.4238C88.4023 64.4238 87.8398 64.3066 87.3125 64.0723C86.7734 63.8496 86.3047 63.5391 85.9062 63.1406C85.5195 62.7422 85.2148 62.2793 84.9922 61.752C84.7578 61.2246 84.6406 60.6621 84.6406 60.0645C84.6406 59.4551 84.7578 58.8867 84.9922 58.3594C85.2148 57.832 85.5195 57.375 85.9062 56.9883C86.3047 56.5898 86.7734 56.2793 87.3125 56.0566C87.8398 55.8223 88.4023 55.7051 89 55.7051C89.5977 55.7051 90.1602 55.8223 90.6875 56.0566C91.2266 56.2793 91.6895 56.5898 92.0762 56.9883C92.4746 57.375 92.7852 57.832 93.0078 58.3594C93.2422 58.8867 93.3594 59.4551 93.3594 60.0645C93.3594 60.6621 93.2422 61.2246 93.0078 61.752C92.7852 62.2793 92.4746 62.7422 92.0762 63.1406C91.6895 63.5391 91.2266 63.8496 90.6875 64.0723C90.1602 64.3066 89.5977 64.4238 89 64.4238ZM89 57.4453C88.2734 57.4453 87.6523 57.7031 87.1367 58.2188C86.6328 58.7227 86.3809 59.3379 86.3809 60.0645C86.3809 60.7793 86.6328 61.3945 87.1367 61.9102C87.6523 62.4141 88.2734 62.666 89 62.666C89.7266 62.666 90.3418 62.4141 90.8457 61.9102C91.3613 61.3945 91.6191 60.7793 91.6191 60.0645C91.6191 59.3379 91.3613 58.7227 90.8457 58.2188C90.3418 57.7031 89.7266 57.4453 89 57.4453ZM97.1211 72.5449C96.8867 72.5449 96.6816 72.457 96.5059 72.2812C96.3418 72.1172 96.2598 71.9121 96.2598 71.666C96.2598 71.1035 96.166 70.5879 95.9785 70.1191C95.7793 69.6621 95.416 69.2695 94.8887 68.9414C94.3613 68.6133 93.623 68.3555 92.6738 68.168C91.7363 67.9922 90.5117 67.9043 89 67.9043C87.4883 67.9043 86.2637 67.9922 85.3262 68.168C84.377 68.3555 83.6387 68.6133 83.1113 68.9414C82.584 69.2695 82.2207 69.6621 82.0215 70.1191C81.834 70.5879 81.7402 71.1035 81.7402 71.666C81.7402 71.9121 81.6523 72.1172 81.4766 72.2812C81.3125 72.457 81.1133 72.5449 80.8789 72.5449C80.6328 72.5449 80.4219 72.457 80.2461 72.2812C80.082 72.1172 80 71.9121 80 71.666C80 70.2949 80.3398 69.2344 81.0195 68.4844C81.7109 67.7344 82.5312 67.1895 83.4805 66.8496C84.4414 66.498 85.4316 66.2988 86.4512 66.252C87.4824 66.1934 88.332 66.1641 89 66.1641C89.668 66.1641 90.5176 66.1934 91.5488 66.252C92.5684 66.2988 93.5527 66.498 94.502 66.8496C95.4629 67.1895 96.2891 67.7344 96.9805 68.4844C97.6602 69.2344 98 70.2949 98 71.666C98 71.9121 97.9121 72.1172 97.7363 72.2812C97.5723 72.457 97.3672 72.5449 97.1211 72.5449Z" fill="white"/>
</g>
<defs>
<filter id="filter0_d" x="79.5" y="55.7051" width="18.5" height="17.3398" filterUnits="userSpaceOnUse" color-interpolation-filters="sRGB">
<feFlood flood-opacity="0" result="BackgroundImageFix"/>
<feColorMatrix in="SourceAlpha" type="matrix" values="0 0 0 0 0 0 0 0 0 0 0 0 0 0 0 0 0 0 127 0"/>
<feOffset dx="-0.5" dy="0.5"/>
<feColorMatrix type="matrix" values="0 0 0 0 0 0 0 0 0 0 0 0 0 0 0 0 0 0 0.15 0"/>
<feBlend mode="normal" in2="BackgroundImageFix" result="effect1_dropShadow"/>
<feBlend mode="normal" in="SourceGraphic" in2="effect1_dropShadow" result="shape"/>
</filter>
</defs>
</svg>
