<svg width="283" height="132" viewBox="0 0 283 132" fill="none" xmlns="http://www.w3.org/2000/svg">
<rect width="283" height="132" rx="4" fill="#78909C" fill-opacity="0.1"/>
<rect x="1" y="1" width="281" height="130" rx="3" stroke="#78909C" stroke-opacity="0.5" stroke-width="2"/>
<g filter="url(#filter0_d)">
<path fill-rule="evenodd" clip-rule="evenodd" d="M167.405 29.5618C167.206 29.2852 166.794 29.2852 166.595 29.5618L163.392 34H145C143.343 34 142 35.3432 142 37V77C142 78.6569 143.343 80 145 80H256C257.657 80 259 78.6569 259 77V37C259 35.3432 257.657 34 256 34H170.608L167.405 29.5618Z" fill="white"/>
</g>
<rect x="154" y="52" width="22" height="3" rx="1.5" fill="#B5C2C8"/>
<rect x="154" y="59" width="16" height="3" rx="1.5" fill="#B5C2C8"/>
<rect x="154" y="67" width="20" height="3" rx="1.5" fill="#B5C2C8"/>
<rect x="154" y="42" width="30" height="4" rx="2" fill="#283738"/>
<rect x="210" y="52" width="27" height="3" rx="1.5" fill="#B5C2C8"/>
<rect x="210" y="59" width="29" height="3" rx="1.5" fill="#B5C2C8"/>
<rect x="210" y="67" width="16" height="3" rx="1.5" fill="#B5C2C8"/>
<rect x="210" y="42" width="31" height="4" rx="2" fill="#283738"/>
<rect x="187" y="18.5" width="16" height="3" rx="1.5" fill="#B5C2C8"/>
<rect x="159" y="19" width="16" height="3" rx="1.5" fill="#B5C2C8"/>
<rect x="215" y="18.5" width="16" height="3" rx="1.5" fill="#B5C2C8"/>
<rect x="243" y="18.5" width="16" height="3" rx="1.5" fill="#B5C2C8"/>
<path d="M27.5245 11.9635C27.6741 11.5029 28.3259 11.5029 28.4755 11.9635L30.1329 17.0643C30.1998 17.2703 30.3918 17.4098 30.6084 17.4098H35.9717C36.4561 17.4098 36.6575 18.0296 36.2656 18.3143L31.9266 21.4668C31.7514 21.5941 31.678 21.8198 31.745 22.0258L33.4023 27.1266C33.552 27.5873 33.0248 27.9704 32.6329 27.6857L28.2939 24.5332C28.1186 24.4059 27.8814 24.4059 27.7061 24.5332L23.3671 27.6857C22.9752 27.9704 22.448 27.5873 22.5977 27.1266L24.255 22.0258C24.322 21.8198 24.2486 21.5941 24.0734 21.4668L19.7344 18.3143C19.3425 18.0296 19.5439 17.4098 20.0283 17.4098H25.3916C25.6082 17.4098 25.8002 17.2703 25.8671 17.0643L27.5245 11.9635Z" fill="#B5C2C8"/>
<defs>
<filter id="filter0_d" x="140" y="29.3544" width="121" height="54.6457" filterUnits="userSpaceOnUse" color-interpolation-filters="sRGB">
<feFlood flood-opacity="0" result="BackgroundImageFix"/>
<feColorMatrix in="SourceAlpha" type="matrix" values="0 0 0 0 0 0 0 0 0 0 0 0 0 0 0 0 0 0 127 0"/>
<feOffset dy="2"/>
<feGaussianBlur stdDeviation="1"/>
<feColorMatrix type="matrix" values="0 0 0 0 0 0 0 0 0 0 0 0 0 0 0 0 0 0 0.03 0"/>
<feBlend mode="normal" in2="BackgroundImageFix" result="effect1_dropShadow"/>
<feBlend mode="normal" in="SourceGraphic" in2="effect1_dropShadow" result="shape"/>
</filter>
</defs>
</svg>
