<svg width="283" height="132" viewBox="0 0 283 132" fill="none" xmlns="http://www.w3.org/2000/svg">
<rect width="283" height="132" rx="4" fill="#78909C" fill-opacity="0.1"/>
<rect x="1" y="1" width="281" height="130" rx="3" stroke="#78909C" stroke-opacity="0.5" stroke-width="2"/>
<g filter="url(#filter0_dd)">
<path fill-rule="evenodd" clip-rule="evenodd" d="M158 32H211C212.657 32 214 33.3431 214 35V108C214 109.657 212.657 111 211 111H73C71.3431 111 70 109.657 70 108V35C70 33.3431 71.3431 32 73 32H126C126 23.1634 133.163 16 142 16C150.837 16 158 23.1634 158 32Z" fill="white"/>
</g>
<rect x="145" y="93" width="32" height="10" rx="5" fill="#283738"/>
<rect x="153" y="97" width="16" height="2" rx="1" fill="#B5C2C8"/>
<rect x="145" y="93" width="61" height="10" rx="5" fill="#283738"/>
<rect x="166" y="97" width="20" height="2" rx="1" fill="#B5C2C8"/>
<rect x="107" y="93" width="32" height="10" rx="5" fill="#283738"/>
<rect x="115" y="97" width="16" height="2" rx="1" fill="#B5C2C8"/>
<rect x="82" y="93" width="57" height="10" rx="5" fill="#B5C2C8"/>
<rect x="101" y="97" width="20" height="2" rx="1" fill="#283738"/>
<rect x="121" y="58" width="43" height="3" rx="1.5" fill="#283738"/>
<rect x="96" y="69" width="92" height="3" rx="1.5" fill="#B5C2C8"/>
<rect x="106" y="78" width="74" height="3" rx="1.5" fill="#B5C2C8"/>
<path d="M142 19.5C140.344 19.5 138.789 19.8125 137.336 20.4375C135.867 21.0625 134.586 21.9219 133.492 23.0156C132.414 24.0938 131.562 25.3672 130.938 26.8359C130.312 28.2891 130 29.8438 130 31.5C130 33.1562 130.312 34.7109 130.938 36.1641C131.562 37.6328 132.414 38.9141 133.492 40.0078C134.586 41.0859 135.867 41.9375 137.336 42.5625C138.789 43.1875 140.344 43.5 142 43.5C143.656 43.5 145.211 43.1875 146.664 42.5625C148.133 41.9375 149.406 41.0859 150.484 40.0078C151.578 38.9141 152.438 37.6328 153.062 36.1641C153.688 34.7109 154 33.1562 154 31.5C154 29.8438 153.688 28.2891 153.062 26.8359C152.438 25.3672 151.578 24.0938 150.484 23.0156C149.406 21.9219 148.133 21.0625 146.664 20.4375C145.211 19.8125 143.656 19.5 142 19.5ZM142 41.5078C140.625 41.5078 139.328 41.2422 138.109 40.7109C136.891 40.1953 135.828 39.4844 134.922 38.5781C134.016 37.6719 133.305 36.6094 132.789 35.3906C132.258 34.1719 131.992 32.875 131.992 31.5C131.992 30.125 132.258 28.8281 132.789 27.6094C133.305 26.3906 134.016 25.3281 134.922 24.4219C135.828 23.5156 136.891 22.8047 138.109 22.2891C139.328 21.7578 140.625 21.4922 142 21.4922C143.375 21.4922 144.672 21.7578 145.891 22.2891C147.109 22.8047 148.172 23.5156 149.078 24.4219C149.984 25.3281 150.695 26.3906 151.211 27.6094C151.742 28.8281 152.008 30.125 152.008 31.5C152.008 32.875 151.742 34.1719 151.211 35.3906C150.695 36.6094 149.984 37.6719 149.078 38.5781C148.172 39.4844 147.109 40.1953 145.891 40.7109C144.672 41.2422 143.375 41.5078 142 41.5078ZM138.93 25.7578C138.539 26.1484 138.227 26.6094 137.992 27.1406C137.773 27.6719 137.664 28.2344 137.664 28.8281C137.664 29.1094 137.758 29.3516 137.945 29.5547C138.148 29.7422 138.391 29.8359 138.672 29.8359C138.938 29.8359 139.164 29.7422 139.352 29.5547C139.555 29.3516 139.656 29.1094 139.656 28.8281C139.656 28.5 139.719 28.1953 139.844 27.9141C139.969 27.6328 140.133 27.3906 140.336 27.1875C140.555 26.9844 140.805 26.8281 141.086 26.7188C141.367 26.5938 141.672 26.5312 142 26.5312C142.328 26.5312 142.633 26.5938 142.914 26.7188C143.195 26.8281 143.445 26.9844 143.664 27.1875C143.867 27.3906 144.031 27.6406 144.156 27.9375C144.281 28.2188 144.344 28.5234 144.344 28.8516C144.344 29.4922 144.117 30.0391 143.664 30.4922C143.211 30.9453 142.664 31.1719 142.023 31.1719C142.023 31.1719 142.016 31.1719 142 31.1719C141.719 31.1875 141.484 31.2891 141.297 31.4766C141.109 31.6641 141.008 31.8984 140.992 32.1797V33.5156C140.992 33.7969 141.086 34.0391 141.273 34.2422C141.477 34.4297 141.719 34.5234 142 34.5234C142.281 34.5234 142.516 34.4297 142.703 34.2422C142.906 34.0391 143.008 33.7969 143.008 33.5156V33.0703C143.414 32.9609 143.789 32.8125 144.133 32.625C144.477 32.4219 144.789 32.1875 145.07 31.9219C145.461 31.5156 145.766 31.0547 145.984 30.5391C146.219 30.0078 146.336 29.4453 146.336 28.8516C146.336 28.2422 146.219 27.6797 145.984 27.1641C145.766 26.6328 145.461 26.1719 145.07 25.7812C144.664 25.4062 144.195 25.1094 143.664 24.8906C143.148 24.6562 142.594 24.5391 142 24.5391C141.406 24.5391 140.844 24.6484 140.312 24.8672C139.797 25.0859 139.336 25.3828 138.93 25.7578ZM143.664 37.1719C143.664 37.625 143.5 38.0156 143.172 38.3438C142.844 38.6719 142.453 38.8359 142 38.8359C141.547 38.8359 141.156 38.6719 140.828 38.3438C140.5 38.0156 140.336 37.625 140.336 37.1719C140.336 36.7031 140.5 36.3125 140.828 36C141.156 35.6719 141.547 35.5078 142 35.5078C142.453 35.5078 142.844 35.6719 143.172 36C143.5 36.3125 143.664 36.7031 143.664 37.1719Z" fill="#B5C2C8"/>
<defs>
<filter id="filter0_dd" x="66" y="16" width="152" height="103" filterUnits="userSpaceOnUse" color-interpolation-filters="sRGB">
<feFlood flood-opacity="0" result="BackgroundImageFix"/>
<feColorMatrix in="SourceAlpha" type="matrix" values="0 0 0 0 0 0 0 0 0 0 0 0 0 0 0 0 0 0 127 0"/>
<feOffset dy="2"/>
<feGaussianBlur stdDeviation="1"/>
<feColorMatrix type="matrix" values="0 0 0 0 0 0 0 0 0 0 0 0 0 0 0 0 0 0 0.03 0"/>
<feBlend mode="normal" in2="BackgroundImageFix" result="effect1_dropShadow"/>
<feColorMatrix in="SourceAlpha" type="matrix" values="0 0 0 0 0 0 0 0 0 0 0 0 0 0 0 0 0 0 127 0"/>
<feOffset dy="4"/>
<feGaussianBlur stdDeviation="2"/>
<feColorMatrix type="matrix" values="0 0 0 0 0 0 0 0 0 0 0 0 0 0 0 0 0 0 0.06 0"/>
<feBlend mode="normal" in2="effect1_dropShadow" result="effect2_dropShadow"/>
<feBlend mode="normal" in="SourceGraphic" in2="effect2_dropShadow" result="shape"/>
</filter>
</defs>
</svg>
