<svg width="283" height="132" viewBox="0 0 283 132" fill="none" xmlns="http://www.w3.org/2000/svg">
<rect width="283" height="132" rx="4" fill="#78909C" fill-opacity="0.1"/>
<rect x="1" y="1" width="281" height="130" rx="3" stroke="#78909C" stroke-opacity="0.5" stroke-width="2"/>
<g filter="url(#filter0_d)">
<rect x="48" y="16" width="187" height="100" rx="3" fill="white"/>
</g>
<rect opacity="0.9" x="48" y="32" width="187" height="11" fill="#B5C2C8" fill-opacity="0.5"/>
<rect x="64" y="36" width="24" height="3" rx="1.5" fill="#283738"/>
<rect x="104" y="36" width="24" height="3" rx="1.5" fill="#283738"/>
<rect x="144" y="36" width="24" height="3" rx="1.5" fill="#283738"/>
<rect x="184" y="36" width="24" height="3" rx="1.5" fill="#283738"/>
<rect x="64" y="49" width="7" height="7" rx="3.5" fill="#B5C2C8"/>
<rect x="104" y="51" width="19" height="3" rx="1.5" fill="#B5C2C8"/>
<rect x="75" y="51" width="13" height="3" rx="1.5" fill="#B5C2C8"/>
<rect x="144" y="51" width="20" height="3" rx="1.5" fill="#B5C2C8"/>
<rect x="184" y="51" width="19" height="3" rx="1.5" fill="#B5C2C8"/>
<rect x="64" y="62" width="7" height="7" rx="3.5" fill="#B5C2C8"/>
<rect x="104" y="64" width="22" height="3" rx="1.5" fill="#B5C2C8"/>
<rect x="75" y="64" width="13" height="3" rx="1.5" fill="#B5C2C8"/>
<rect x="144" y="64" width="22" height="3" rx="1.5" fill="#B5C2C8"/>
<rect x="184" y="64" width="15" height="3" rx="1.5" fill="#B5C2C8"/>
<rect x="64" y="75" width="7" height="7" rx="3.5" fill="#B5C2C8"/>
<rect x="104" y="77" width="16" height="3" rx="1.5" fill="#B5C2C8"/>
<rect x="75" y="77" width="13" height="3" rx="1.5" fill="#B5C2C8"/>
<rect x="144" y="77" width="24" height="3" rx="1.5" fill="#B5C2C8"/>
<rect x="184" y="77" width="28" height="3" rx="1.5" fill="#B5C2C8"/>
<rect x="64" y="88" width="7" height="7" rx="3.5" fill="#B5C2C8"/>
<rect x="104" y="90" width="19" height="3" rx="1.5" fill="#B5C2C8"/>
<rect x="75" y="90" width="13" height="3" rx="1.5" fill="#B5C2C8"/>
<rect x="144" y="90" width="16" height="3" rx="1.5" fill="#B5C2C8"/>
<rect x="184" y="90" width="22" height="3" rx="1.5" fill="#B5C2C8"/>
<defs>
<filter id="filter0_d" x="46" y="16" width="191" height="104" filterUnits="userSpaceOnUse" color-interpolation-filters="sRGB">
<feFlood flood-opacity="0" result="BackgroundImageFix"/>
<feColorMatrix in="SourceAlpha" type="matrix" values="0 0 0 0 0 0 0 0 0 0 0 0 0 0 0 0 0 0 127 0"/>
<feOffset dy="2"/>
<feGaussianBlur stdDeviation="1"/>
<feColorMatrix type="matrix" values="0 0 0 0 0 0 0 0 0 0 0 0 0 0 0 0 0 0 0.03 0"/>
<feBlend mode="normal" in2="BackgroundImageFix" result="effect1_dropShadow"/>
<feBlend mode="normal" in="SourceGraphic" in2="effect1_dropShadow" result="shape"/>
</filter>
</defs>
</svg>
