<svg width="283" height="132" viewBox="0 0 283 132" fill="none" xmlns="http://www.w3.org/2000/svg">
<rect width="283" height="132" rx="4" fill="#78909C" fill-opacity="0.1"/>
<rect x="1" y="1" width="281" height="130" rx="3" stroke="#78909C" stroke-opacity="0.5" stroke-width="2"/>
<g filter="url(#filter0_d)">
<rect x="64" y="22" width="155" height="87" rx="3" fill="white"/>
</g>
<rect x="72" y="39" width="62" height="3" rx="1.5" fill="#B5C2C8"/>
<rect x="200.5" y="31.5" width="9" height="9" rx="4.5" fill="#B5C2C8" fill-opacity="0.1" stroke="#B5C2C8" stroke-width="3"/>
<rect x="72" y="30" width="77" height="3" rx="1.5" fill="#283738"/>
<rect x="64" y="50" width="155" height="1" fill="#F2F4F5"/>
<rect x="72" y="68" width="44" height="3" rx="1.5" fill="#B5C2C8"/>
<rect x="200.5" y="60.5" width="9" height="9" rx="4.5" fill="#4CAF50" stroke="#419544" stroke-width="3"/>
<rect x="72" y="59" width="60" height="3" rx="1.5" fill="#283738"/>
<rect x="64" y="79" width="155" height="1" fill="#F2F4F5"/>
<rect x="72" y="97" width="68" height="3" rx="1.5" fill="#B5C2C8"/>
<rect x="200.5" y="89.5" width="9" height="9" rx="4.5" fill="#B5C2C8" fill-opacity="0.1" stroke="#B5C2C8" stroke-width="3"/>
<rect x="72" y="88" width="53" height="3" rx="1.5" fill="#283738"/>
<defs>
<filter id="filter0_d" x="62" y="22" width="159" height="91" filterUnits="userSpaceOnUse" color-interpolation-filters="sRGB">
<feFlood flood-opacity="0" result="BackgroundImageFix"/>
<feColorMatrix in="SourceAlpha" type="matrix" values="0 0 0 0 0 0 0 0 0 0 0 0 0 0 0 0 0 0 127 0"/>
<feOffset dy="2"/>
<feGaussianBlur stdDeviation="1"/>
<feColorMatrix type="matrix" values="0 0 0 0 0 0 0 0 0 0 0 0 0 0 0 0 0 0 0.03 0"/>
<feBlend mode="normal" in2="BackgroundImageFix" result="effect1_dropShadow"/>
<feBlend mode="normal" in="SourceGraphic" in2="effect1_dropShadow" result="shape"/>
</filter>
</defs>
</svg>
